<svg width="212" height="47" viewBox="0 0 212 47" fill="none" xmlns="http://www.w3.org/2000/svg">
<path d="M7.07346 44.0837C7.88703 44.0837 8.62375 43.6973 8.62375 42.208C8.62375 41.1797 8.20793 40.2419 7.07346 40.2419H2.68927V44.0814H7.07346V44.0837ZM6.96725 37.982C7.92996 37.982 8.4407 37.3944 8.4407 36.3933C8.4407 35.0939 7.64748 34.7933 6.96725 34.7933H2.68927V37.982H6.96725ZM0 32.4294H7.12544C10.0271 32.4294 11.0803 34.1628 11.0803 36.1741C11.0803 37.4645 10.5311 38.9176 9.15934 39.173C10.33 39.3854 11.304 40.5492 11.304 42.3323C11.304 44.9379 10.1266 46.4498 7.17742 46.4498H0.897178C0.400001 46.4498 0 46.0476 0 45.5504" fill="#0E416C"/>
<path d="M20.8249 40.9651L19.2497 35.9617L17.5638 40.9651H20.8249ZM18.3503 32.4294H20.104C20.4927 32.4294 20.8384 32.6803 20.9582 33.0509L25.3107 46.4498H23.1119C22.7232 46.4498 22.3774 46.1967 22.2576 45.8261L21.4622 43.3425H16.8701L16.0588 45.8283C15.939 46.1967 15.5955 46.4498 15.2068 46.4498H12.9785L17.5028 33.0396C17.6249 32.6758 17.9661 32.4294 18.3503 32.4294Z" fill="#0E416C"/>
<path d="M28.7888 32.4294H30.6103L36.1719 41.4894V33.3289C36.1719 32.8317 36.5742 32.4317 37.0691 32.4317H38.8521V46.4498H36.1719L30.59 37.4961V46.4498H28.7866C28.2894 46.4498 27.8894 46.0476 27.8894 45.5526V33.3289C27.8917 32.8317 28.2939 32.4294 28.7888 32.4294Z" fill="#0E416C"/>
<path d="M42.0249 32.4294H43.704C44.1989 32.4294 44.6012 32.8317 44.6012 33.3266V38.2893H45.7289L49.017 32.8611C49.182 32.5922 49.4712 32.4294 49.7854 32.4294H52.4046L48.1153 39.4509L52.4046 46.4476H49.7831C49.4712 46.4476 49.182 46.2848 49.017 46.0204L45.7289 40.6555H44.6193V45.5504C44.6193 46.0453 44.217 46.4476 43.7221 46.4476H42.0249" fill="#0E416C"/>
<path d="M68.4748 40.9651L66.8997 35.9617L65.2138 40.9651H68.4748ZM66.0025 32.4294H67.7562C68.1449 32.4294 68.4907 32.6803 68.6104 33.0509L72.9607 46.4498H70.7618C70.3709 46.4498 70.0251 46.1967 69.9076 45.8261L69.1121 43.3425H64.52L63.7087 45.8283C63.5889 46.1967 63.2454 46.4498 62.8545 46.4498H60.6262L65.1505 33.0396C65.2748 32.6758 65.6183 32.4294 66.0025 32.4294Z" fill="#0E416C"/>
<path d="M78.2217 43.9775H83.3178C83.815 43.9775 84.2172 44.3798 84.2172 44.8747V46.4476H76.4387C75.9415 46.4476 75.5415 46.0453 75.5415 45.5481V32.4294H77.3246C77.8217 32.4294 78.2217 32.8317 78.2217 33.3289" fill="#0E416C"/>
<path d="M86.3958 43.9165C88.1381 44.0701 89.128 44.1266 89.1347 42.1176V33.3266C89.1347 32.8294 89.537 32.4294 90.0342 32.4294H91.8172V43.2882C91.8172 44.1877 91.7585 45.4916 90.8003 46.1041C89.9754 46.6329 88.2263 46.7504 87.0602 46.5357C86.6511 46.4589 86.3664 46.086 86.3709 45.6724" fill="#0E416C"/>
<path d="M102.317 40.9651L100.741 35.9617L99.0556 40.9651H102.317ZM99.842 32.4294H101.593C101.984 32.4294 102.328 32.6803 102.448 33.0509L106.8 46.4498H104.601C104.21 46.4498 103.865 46.1967 103.747 45.8261L102.952 43.3425H98.3596L97.5483 45.8283C97.4285 46.1967 97.085 46.4498 96.6963 46.4498H94.468L98.9923 33.0396C99.1166 32.6758 99.4579 32.4294 99.842 32.4294Z" fill="#0E416C"/>
<path d="M108.732 43.9776L115.157 34.8996H108.732V33.3267C108.732 32.8295 109.135 32.4272 109.63 32.4272H117.487C117.984 32.4272 118.387 32.8295 118.387 33.3267V34.8996L112.276 43.9776H118.387V45.5504C118.387 46.0476 117.984 46.4499 117.487 46.4499H109.63C109.135 46.4499 108.732 46.0476 108.732 45.5504" fill="#0E416C"/>
<path d="M122.079 32.4294H123.862V46.4476H122.079C121.584 46.4476 121.182 46.0453 121.182 45.5504V33.3266C121.18 32.8317 121.582 32.4294 122.079 32.4294Z" fill="#0E416C"/>
<path d="M133.607 38.7684C134.54 38.7684 134.986 38.495 134.986 36.8023C134.986 35.2091 134.448 34.8159 133.607 34.8159H129.53V38.7707H133.607V38.7684ZM126.839 32.4294H133.869C136.057 32.4294 137.684 33.4532 137.684 36.8001C137.684 40.2713 136.231 40.6826 135.451 40.9266L138.106 46.4476H135.679C135.322 46.4476 134.999 46.2374 134.857 45.9097L132.773 41.1436H129.521V45.5504C129.521 46.0453 129.117 46.4476 128.622 46.4476H126.839" fill="#0E416C"/>
<path d="M148.032 40.9651L146.457 35.9617L144.771 40.9651H148.032ZM145.557 32.4294H147.311C147.7 32.4294 148.046 32.6803 148.165 33.0509L152.516 46.4498H150.317C149.928 46.4498 149.582 46.1967 149.463 45.8261L148.667 43.3425H144.075L143.264 45.8283C143.144 46.1967 142.8 46.4498 142.409 46.4498H140.181L144.705 33.0396C144.83 32.6758 145.171 32.4294 145.557 32.4294Z" fill="#0E416C"/>
<path d="M145.878 21.7583C144.76 21.7583 143.906 22.6736 143.906 23.7809C143.906 24.886 144.76 25.7832 145.878 25.7832C146.986 25.7832 147.915 24.8883 147.915 23.7809C147.915 22.6736 146.986 21.7583 145.878 21.7583Z" fill="#0E416C"/>
<path d="M137.363 4.02492C138.477 4.02492 139.372 3.12323 139.372 2.01588C139.372 0.908533 138.477 0.00683594 137.363 0.00683594C136.258 0.00683594 135.377 0.908533 135.377 2.01588C135.377 3.12323 136.258 4.02492 137.363 4.02492Z" fill="#0E416C"/>
<path d="M117.437 7.88025V7.18646H111.657V6.07911C111.657 4.35707 112.382 3.47798 113.876 3.47798C114.36 3.47798 114.812 3.63165 115.227 3.94804C115.609 4.23956 116.14 4.23052 116.477 3.88702L117.395 2.9582C116.362 1.88701 115.329 1.29492 114.145 1.29492C111.123 1.29492 109.324 3.55255 109.324 6.42036V7.1842C108.78 7.1842 108.337 7.62714 108.337 8.17177V9.40342H115.914C116.755 9.40567 117.437 8.72319 117.437 7.88025Z" fill="#0E416C"/>
<path d="M50.3346 4.03384C51.4329 4.03384 52.3482 3.13214 52.3482 2.02479C52.3482 0.919706 51.4329 0.0112305 50.3346 0.0112305C49.234 0.0112305 48.3391 0.919706 48.3391 2.02479C48.3414 3.13214 49.2363 4.03384 50.3346 4.03384Z" fill="#0E416C"/>
<path d="M32.3053 21.8486C31.5889 22.0226 31.0262 22.6124 30.8634 23.331C30.5493 24.7277 31.6454 25.9661 33.0488 25.7898C33.8872 25.6859 34.6013 25.0531 34.7708 24.2237C35.0691 22.7683 33.738 21.5028 32.3053 21.8486Z" fill="#0E416C"/>
<path d="M37.8397 21.7922C36.7346 21.7922 35.8804 22.7007 35.8804 23.8148C35.8804 24.9154 36.7346 25.8081 37.8397 25.8081C38.947 25.8081 39.8555 24.9132 39.8555 23.8148C39.8555 22.7007 38.947 21.7922 37.8397 21.7922Z" fill="#0E416C"/>
<path d="M7.41021 4.02255C8.24863 3.9186 8.96276 3.28583 9.13225 2.45645C9.43055 0.998816 8.09722 -0.264464 6.6667 0.0812991C5.95258 0.255311 5.38986 0.845142 5.22715 1.56379C4.90851 2.9604 6.00456 4.19882 7.41021 4.02255Z" fill="#0E416C"/>
<path d="M12.1989 4.04073C13.304 4.04073 14.2147 3.14581 14.2147 2.04751C14.2147 0.935638 13.3062 0.0249023 12.1989 0.0249023C11.0915 0.0249023 10.2373 0.933378 10.2373 2.04751C10.2373 3.14581 11.0915 4.04073 12.1989 4.04073Z" fill="#0E416C"/>
<path d="M63.4398 21.7515C62.3664 21.7515 61.4714 22.6667 61.4714 23.7718C61.4714 24.8792 62.3664 25.7809 63.4398 25.7809C64.5381 25.7809 65.4827 24.8792 65.4827 23.7718C65.4827 22.6667 64.5404 21.7515 63.4398 21.7515Z" fill="#0E416C"/>
<path d="M89.9595 0.0249023H87.5459V19.1775H89.9595C90.486 19.1775 90.9131 18.7504 90.9131 18.2238V0.980836C90.9131 0.452021 90.486 0.0249023 89.9595 0.0249023Z" fill="#0E416C"/>
<path d="M13.322 14.8677C13.322 17.2519 11.444 18.4678 9.70162 18.4678H7.06207C4.67562 18.4678 3.46206 16.5898 3.46206 14.8677C3.46206 13.1276 4.67562 11.2474 7.06207 11.2474H13.322V14.8677ZM0.135498 14.8677C0.135498 18.4067 2.44285 21.7921 7.05981 21.7921H9.69936C13.2587 21.7921 16.644 19.4847 16.644 14.8677V7.9231H7.05981C2.44511 7.9231 0.135498 11.3084 0.135498 14.8677Z" fill="#0E416C"/>
<path d="M40.5425 8.88355V15.8372H24.7933V13.5209V13.5163V13.5118V7.91406H22.4092C21.8668 7.91406 21.4261 8.35474 21.4261 8.89711V21.3333C21.4261 22.6734 20.9086 23.6836 20.1493 24.3751C19.7063 24.7796 19.5933 25.4327 19.8713 25.9661L21.0148 27.6294C23.347 26.4746 24.7933 24.2938 24.7933 20.7638V19.1774H42.938C43.4759 19.1774 43.9098 18.7435 43.9098 18.2079V7.91406H41.512C40.9764 7.91406 40.5425 8.34796 40.5425 8.88355Z" fill="#0E416C"/>
<path d="M84.2894 0.0249023H81.8939C81.3561 0.0249023 80.9222 0.458802 80.9222 0.994396V15.8351H73.9572C74.2125 9.67012 69.5662 3.56389 59.417 4.23734V6.56503C59.417 6.99667 59.756 7.35599 60.1876 7.37181C67.3312 7.6091 70.5199 11.1617 70.5199 15.3583L70.538 15.8351H52.0272V7.91419H49.6452C49.1006 7.91419 48.6622 8.35486 48.6622 8.89724V21.3334C48.6622 22.6735 48.1447 23.6837 47.3854 24.3752C46.9424 24.7798 46.8294 25.4329 47.1074 25.9662L48.2509 27.6295C50.5808 26.4747 52.0294 24.2939 52.0294 20.7639V19.1775H83.3199C83.8578 19.1775 84.2894 18.7436 84.2894 18.208V12.8295C84.2894 12.8249 84.2894 12.8227 84.2894 12.8182C84.2894 12.8136 84.2894 12.8114 84.2894 12.8091" fill="#0E416C"/>
<path d="M152.547 12.8135V7.91407H150.131C149.596 7.91407 149.162 8.35023 149.162 8.88356V15.8666H139.033V7.91407H136.685C136.15 7.91407 135.716 8.35023 135.716 8.88356V15.8666H126.215V0.0202637H124.093C123.395 0.0202637 122.83 0.585237 122.83 1.28128V15.8666H103.84V7.90955H101.736C101.04 7.90955 100.475 8.47452 100.475 9.17057V12.7774C100.475 12.7887 100.475 12.8045 100.475 12.818C100.475 12.8316 100.475 12.8452 100.475 12.8587V17.835H100.479C100.518 18.5875 101.137 19.1842 101.896 19.1842L151.58 19.1593C152.116 19.1593 152.55 18.7231 152.55 18.1875V12.8135" fill="#0E416C"/>
<path d="M165.25 3.17515C165.306 2.14012 166.488 2.07101e-07 168.665 0.00903978L179.754 0C180.486 2.17854 184.055 11.5187 185.223 13.487C186.475 15.5729 189.458 19.7063 189.625 19.9255L189.867 20.2554C190.181 20.2034 190.762 20.1063 190.999 20.0724L191.108 20.0588L191.273 20.1447C191.345 20.1808 191.39 20.2034 191.503 20.278L191.657 20.3797V21.0599L192.73 22.7164L197.307 22.0475C197.632 21.6068 198.672 20.5899 199.485 19.4712L200.457 18.7865L200.244 18.9786C200.265 19.0509 200.283 19.1209 200.303 19.191C200.346 19.356 200.387 19.5142 200.448 19.6226C200.665 19.9707 201.239 20.321 204.066 21.826L204.159 21.8758C205.026 22.3413 206.217 22.9786 206.861 23.3628L207.11 23.5097L207.008 23.7808C206.651 24.7187 205.759 26.7481 205.46 27.2633C205.431 27.3108 202.577 32.0973 202.215 32.7142L202.188 32.7594L202.147 32.7956C202.055 32.8792 201.542 33.3605 201.017 33.8509C200.495 34.3436 199.96 34.843 199.82 34.9718L199.761 35.0238L199.684 35.0464C199.336 35.1481 196.773 35.9662 196.321 36.1086L194.8 37.4396C194.769 37.6453 194.649 38.4362 194.649 38.4362L194.504 38.5199C194.068 38.7707 192.136 39.8532 190.586 40.721C189.528 41.3131 188.527 41.8735 188.459 41.9142L188.414 41.9413L188.364 41.9526C188.199 41.9933 184.667 43.0171 182.31 43.7041L177.953 46.4295L176.016 41.2046L176.064 38.9221L172.425 32.7481L169.415 30.3255L167.896 24.269L165.862 22.7029L165.25 21.5232" fill="white"/>
<path d="M176.066 38.9424L172.425 32.7684L169.415 30.3435L167.896 24.287L165.862 22.7209L165.25 21.5413V42.8746C165.25 44.8385 166.841 46.4295 168.805 46.4295H177.953L176.016 41.2227" fill="#003C71"/>
<path d="M211.68 3.55707C211.68 1.59322 210.086 0 208.123 0H179.734C180.466 2.17854 184.032 11.5119 185.201 13.4803C186.453 15.5661 189.438 19.6995 189.603 19.9209L189.845 20.2509C190.159 20.1989 190.74 20.0995 190.977 20.0678L191.085 20.0543L191.25 20.1402C191.32 20.1763 191.368 20.1989 191.481 20.2735L191.634 20.3752V21.0554L192.708 22.7142L197.286 22.0453C197.612 21.6046 198.651 20.5876 199.465 19.469L200.437 18.7842L200.222 18.9763C200.242 19.0486 200.263 19.1187 200.281 19.191C200.324 19.356 200.364 19.5142 200.428 19.6204C200.645 19.9684 201.219 20.3187 204.046 21.826L204.138 21.8758C205.006 22.3413 206.197 22.9786 206.841 23.3628L207.088 23.5097L206.986 23.7808C206.627 24.721 205.736 26.7503 205.436 27.2633C205.408 27.3108 202.552 32.0995 202.19 32.7142L202.163 32.7594L202.123 32.7956C202.028 32.8792 201.517 33.3605 200.993 33.8532C200.468 34.3458 199.935 34.8453 199.793 34.9741L199.734 35.0283L199.659 35.0487C199.311 35.1504 196.749 35.9684 196.294 36.1131L194.773 37.4442C194.742 37.6498 194.624 38.4408 194.624 38.4408L194.48 38.5221C194.043 38.7752 192.111 39.8555 190.561 40.7233C189.501 41.3154 188.502 41.8758 188.434 41.9165L188.392 41.9436L188.34 41.9572C188.172 41.9978 184.642 43.0216 182.285 43.7086L177.955 46.434L208.123 46.4272C210.08 46.4182 211.707 44.8182 211.68 42.7549" fill="#3CA2DB"/>
</svg>
