<?xml version="1.0" encoding="UTF-8" standalone="no"?>
<!-- Generator: Adobe Illustrator 19.0.0, SVG Export Plug-In . SVG Version: 6.00 Build 0)  -->

<svg
   version="1.1"
   id="Layer_1"
   x="0px"
   y="0px"
   viewBox="0 0 495 495"
   style="enable-background:new 0 0 495 495;"
   xml:space="preserve"
   sodipodi:docname="f1596a11372ee685bbc7f99381add7c6.svg"
   xmlns:inkscape="http://www.inkscape.org/namespaces/inkscape"
   xmlns:sodipodi="http://sodipodi.sourceforge.net/DTD/sodipodi-0.dtd"
   xmlns="http://www.w3.org/2000/svg"
   xmlns:svg="http://www.w3.org/2000/svg"><defs
   id="defs43" /><sodipodi:namedview
   id="namedview41"
   pagecolor="#ffffff"
   bordercolor="#666666"
   borderopacity="1.0"
   inkscape:pageshadow="2"
   inkscape:pageopacity="0.0"
   inkscape:pagecheckerboard="0" />
<g
   id="g8">
	<polygon
   style="fill:#1A6FB0;"
   points="247.5,0 247.5,40 455,40 455,455 247.5,455 247.5,495 495,495 495,0  "
   id="polygon2" />
	<polygon
   style="fill:#1E81CE;"
   points="40,455 40,40 247.5,40 247.5,0 0,0 0,495 247.5,495 247.5,455  "
   id="polygon4" />
	<path
   style="fill:#1E81CE;"
   d="M205.767,405h65.266V247.413h43.798c0,0,4.104-25.428,6.103-53.235h-49.647v-36.264   c0-5.416,7.109-12.696,14.153-12.696h35.564V90h-48.366c-68.478,0-66.872,53.082-66.872,61.009v43.356h-31.771v53.029h31.771V405z"
   id="path6" />
</g>
<g
   id="g10">
</g>
<g
   id="g12">
</g>
<g
   id="g14">
</g>
<g
   id="g16">
</g>
<g
   id="g18">
</g>
<g
   id="g20">
</g>
<g
   id="g22">
</g>
<g
   id="g24">
</g>
<g
   id="g26">
</g>
<g
   id="g28">
</g>
<g
   id="g30">
</g>
<g
   id="g32">
</g>
<g
   id="g34">
</g>
<g
   id="g36">
</g>
<g
   id="g38">
</g>
</svg>
